<svg width="300" height="99" viewBox="0 0 300 99" fill="none" xmlns="http://www.w3.org/2000/svg">
<path d="M31.6724 63.0355L30.886 56.0519L24.4057 37.5234L23.2418 37.6492L19.341 41.9904L18.5546 43.6419V58.1596L20.505 64.2309L1.77197 66.2599L3.72234 59.7639V17.422L1.77197 11.3507L20.505 9.32167L18.5546 15.8177V27.1896L19.7185 25.4909L31.0275 12.8921L32.5847 8.01618L49.3673 6.19164L50.9244 7.5915L35.7147 24.5471L46.7878 53.96L51.1604 60.9436L31.6567 63.0512L31.6724 63.0355Z" fill="white"/>
<path d="M97.5288 57.9708L73.2436 59.4179L63.0671 49.8233V15.2829L73.2436 4.4772L97.5288 3.03015L107.705 12.6247V47.1494L97.5288 57.9551V57.9708ZM92.0395 20.2374L90.4666 17.1861L87.3366 15.8019L83.4201 16.0379L80.2901 17.7995L78.7172 21.0239V41.4241L80.2901 44.4755L83.4201 45.8596L87.3366 45.6237L90.4666 43.8621L92.0395 40.6377V20.2374Z" fill="white"/>
<path d="M160.302 56.7125L125.385 56.8698L127.351 50.5783V8.20493L125.385 1.92914L160.302 1.77185L168.938 10.3598V20.961L163.055 26.875L169.724 33.5125V47.2438L160.302 56.6968V56.7125ZM153.224 17.1074L152.045 14.7638L149.686 13.5999L143.017 13.6314L142.23 14.4178V21.48L143.017 22.2665L149.686 22.235L152.045 21.0553L153.224 18.696V17.1074ZM153.618 37.9009L152.438 35.5573L149.292 34.0001L143.017 34.0316L142.23 34.818V43.4531L143.41 44.6328L149.292 44.6013L152.438 43.0127L153.618 40.6534V37.9009Z" fill="white"/>
<path d="M230.091 11.2406V45.7653L230.878 49.7289L220.701 59.3235L197.595 57.9551L187.419 47.1494L188.205 43.2644V8.77116L186.239 2.36954L205.428 3.50202L203.462 9.6677V40.6691L205.035 43.8935L208.165 45.6552L211.295 45.8439L214.425 44.4598L215.998 41.4084V10.407L214.032 4.00534L232.057 5.0749L230.091 11.2406Z" fill="white"/>
<path d="M278.74 64.7185L277.954 57.5776L271.474 37.6492L270.31 37.5234L266.409 41.0309L265.622 42.5094V57.0271L267.573 63.5231L248.84 61.4941L250.79 55.4227V13.0494L248.84 6.5534L267.573 8.58242L265.622 14.6537V26.0256L266.786 24.5786L278.095 14.4178L279.652 9.87218L296.435 11.681L297.992 13.4269L282.783 27.0795L293.856 58.8831L298.228 66.8104L278.725 64.7027L278.74 64.7185Z" fill="white"/>
<path d="M32.915 87.7769V87.7297C32.915 82.9639 36.6427 79.3934 41.4085 79.3934C46.1744 79.3934 47.3068 81.1079 48.6438 83.5458L44.2397 86.1254C43.642 84.9772 42.8084 84.1907 41.3456 84.1907C39.8828 84.1907 38.3571 85.7636 38.3571 87.6825V87.7297C38.3571 89.8059 39.584 91.2687 41.3456 91.2687C43.1072 91.2687 43.7049 90.4508 44.3655 89.2554L48.7696 91.7405C47.4169 94.1156 45.1834 96.0502 41.2041 96.0502C37.2247 96.0502 32.915 92.7157 32.915 87.7611V87.7769Z" fill="#ADD2E2"/>
<path d="M69.5316 79.6294L76.2635 95.7199H70.4596L69.6103 93.5808H64.0108L63.1929 95.7199H57.4834L64.2153 79.6294H69.5316ZM68.289 89.7901L66.8263 85.9051L65.3635 89.7901H68.289Z" fill="#ADD2E2"/>
<path d="M93.8641 79.7395C96.6952 79.7395 98.504 80.4473 99.6208 81.564C100.58 82.5235 101.084 83.7031 101.084 85.3546V85.4018C101.084 87.7297 99.8724 89.3498 97.9378 90.2935L101.666 95.7199H95.5628L92.5428 91.1586H91.3946V95.7199H86.0468V79.7395H93.8641ZM93.7068 87.3522C94.9808 87.3522 95.7672 86.7859 95.7672 85.795V85.7479C95.7672 84.7255 94.9651 84.2222 93.7382 84.2222H91.4103V87.3522H93.7225H93.7068Z" fill="#ADD2E2"/>
<path d="M115.601 84.2694H110.898V79.7552H125.652V84.2694H120.949V95.7356H115.601V84.2694Z" fill="#ADD2E2"/>
<path d="M143.803 79.7395C146.634 79.7395 148.443 80.4473 149.56 81.564C150.519 82.5235 151.022 83.7031 151.022 85.3546V85.4018C151.022 87.7297 149.811 89.3498 147.877 90.2935L151.604 95.7199H145.502L142.482 91.1586H141.334V95.7199H135.986V79.7395H143.803ZM143.646 87.3522C144.92 87.3522 145.706 86.7859 145.706 85.795V85.7479C145.706 84.7255 144.904 84.2222 143.677 84.2222H141.349V87.3522H143.661H143.646Z" fill="#ADD2E2"/>
<path d="M161.514 79.7395H166.861V95.7199H161.514V79.7395Z" fill="#ADD2E2"/>
<path d="M177.856 79.7395H183.974C190.329 79.7395 193.49 82.8695 193.49 87.5881V87.6353C193.49 92.354 190.25 95.7199 183.786 95.7199H177.856V79.7395ZM184.1 91.0642C186.538 91.0642 188.111 90.0575 188.111 87.7611V87.714C188.111 85.4018 186.538 84.4109 184.1 84.4109H183.204V91.0799H184.1V91.0642Z" fill="#ADD2E2"/>
<path d="M202.141 87.7769V87.7297C202.141 82.9639 205.916 79.3934 210.949 79.3934C215.982 79.3934 215.904 80.3057 217.634 81.8157L214.645 85.4176C213.592 84.521 212.428 84.0177 211.106 84.0177C209.03 84.0177 207.52 85.622 207.52 87.7926V87.8398C207.52 90.1047 209.093 91.6462 211.327 91.6462C213.56 91.6462 212.742 91.5046 213.151 91.2844V89.6801H210.414V86.2512H218.153V93.6437C216.423 95.0593 214.001 96.0345 211.091 96.0345C206.12 96.0345 202.11 92.7 202.11 87.7454L202.141 87.7769Z" fill="#ADD2E2"/>
<path d="M228.848 79.7395H242.485V84.1278H234.102V85.7479H241.903V89.6014H234.102V91.3316H242.595V95.7199H228.848V79.7395Z" fill="#ADD2E2"/>
<path d="M251.844 93.3291L254.691 89.9317C256.421 91.2529 258.419 91.8034 260.29 91.8034C262.162 91.8034 261.659 91.5518 261.659 91.1114V91.0642C261.659 90.608 261.155 90.3564 259.441 90.0104C255.855 89.2868 252.709 88.2487 252.709 84.8671V84.8199C252.709 81.7842 255.084 79.4249 259.488 79.4249C263.892 79.4249 264.852 80.1484 266.708 81.6112L264.097 85.2131C262.587 84.1121 260.794 83.6402 259.299 83.6402C257.805 83.6402 258.136 83.9076 258.136 84.3008V84.348C258.136 84.7884 258.576 85.0558 260.259 85.3704C264.348 86.1254 267.085 87.305 267.085 90.5294V90.5766C267.085 93.9268 264.317 95.9873 260.023 95.9873C255.729 95.9873 253.857 95.075 251.828 93.2977L251.844 93.3291Z" fill="#ADD2E2"/>
</svg>
