<svg width="32" height="32" viewBox="0 0 32 32" fill="none" xmlns="http://www.w3.org/2000/svg">
<path d="M15.9999 22.8203C17.5299 22.8203 18.8269 22.2883 19.8909 21.2243C20.9549 20.1603 21.4869 18.8633 21.4869 17.3333C21.4869 15.8033 20.9549 14.5063 19.8909 13.4423C18.8269 12.3783 17.5299 11.8463 15.9999 11.8463C14.4699 11.8463 13.1729 12.3783 12.1089 13.4423C11.0449 14.5063 10.5129 15.8033 10.5129 17.3333C10.5129 18.8633 11.0449 20.1603 12.1089 21.2243C13.1729 22.2883 14.4699 22.8203 15.9999 22.8203ZM15.9999 20.8206C15.0153 20.8206 14.1879 20.4855 13.5179 19.8153C12.8477 19.1453 12.5126 18.318 12.5126 17.3333C12.5126 16.3486 12.8477 15.5213 13.5179 14.8513C14.1879 14.1811 15.0153 13.846 15.9999 13.846C16.9846 13.846 17.8119 14.1811 18.4819 14.8513C19.1521 15.5213 19.4873 16.3486 19.4873 17.3333C19.4873 18.318 19.1521 19.1453 18.4819 19.8153C17.8119 20.4855 16.9846 20.8206 15.9999 20.8206ZM3.33325 27.3333V7.33329H9.81525L12.2819 4.66663H19.7179L22.1846 7.33329H28.6666V27.3333H3.33325ZM5.33325 25.3333H26.6666V9.33329H21.2923L18.8459 6.66663H13.1539L10.7076 9.33329H5.33325V25.3333Z" fill="white"/>
</svg>
